<svg width="600" height="400" viewBox="0 0 600 400" fill="none" xmlns="http://www.w3.org/2000/svg">
  <!-- Background -->
  <rect width="600" height="400" fill="#f8fafc"/>
  
  <!-- Mobile App Mockup -->
  <g transform="translate(50, 50)">
    <!-- Phone Frame -->
    <rect x="0" y="0" width="200" height="300" rx="20" fill="#1f2937" stroke="#374151" stroke-width="2"/>
    <rect x="10" y="30" width="180" height="240" rx="8" fill="white"/>
    
    <!-- Status Bar -->
    <rect x="10" y="10" width="180" height="20" fill="#1f2937"/>
    <text x="20" y="22" font-family="sans-serif" font-size="8" fill="white">9:41</text>
    <text x="170" y="22" font-family="sans-serif" font-size="8" fill="white">100%</text>
    
    <!-- App Header -->
    <rect x="10" y="30" width="180" height="40" fill="#f59e0b"/>
    <text x="100" y="48" font-family="sans-serif" font-size="12" font-weight="bold" fill="white" text-anchor="middle">FoodFast</text>
    <text x="100" y="60" font-family="sans-serif" font-size="8" fill="#fef3c7" text-anchor="middle">ส่งฟรี ใน 30 นาที</text>
    
    <!-- Search Bar -->
    <rect x="20" y="80" width="160" height="25" rx="12" fill="#f3f4f6" stroke="#d1d5db"/>
    <text x="30" y="95" font-family="sans-serif" font-size="9" fill="#9ca3af">🔍 ค้นหาร้านอาหาร...</text>
    
    <!-- Food Categories -->
    <g transform="translate(20, 115)">
      <rect x="0" y="0" width="35" height="35" rx="8" fill="#fef3c7"/>
      <text x="17" y="22" font-family="sans-serif" font-size="16" text-anchor="middle">🍕</text>
      
      <rect x="45" y="0" width="35" height="35" rx="8" fill="#dbeafe"/>
      <text x="62" y="22" font-family="sans-serif" font-size="16" text-anchor="middle">🍔</text>
      
      <rect x="90" y="0" width="35" height="35" rx="8" fill="#dcfce7"/>
      <text x="107" y="22" font-family="sans-serif" font-size="16" text-anchor="middle">🥗</text>
      
      <rect x="135" y="0" width="35" height="35" rx="8" fill="#fce7f3"/>
      <text x="152" y="22" font-family="sans-serif" font-size="16" text-anchor="middle">🍰</text>
    </g>
    
    <!-- Restaurant List -->
    <g transform="translate(20, 160)">
      <!-- Restaurant 1 -->
      <rect x="0" y="0" width="160" height="50" fill="#fef3c7" rx="8"/>
      <circle cx="20" cy="25" r="12" fill="#f59e0b"/>
      <text x="15" y="30" font-family="sans-serif" font-size="12" fill="white" text-anchor="middle">M</text>
      <text x="40" y="20" font-family="sans-serif" font-size="10" font-weight="bold" fill="#1f2937">McDonald's</text>
      <text x="40" y="32" font-family="sans-serif" font-size="8" fill="#64748b">⭐ 4.5 • 15-20 นาที</text>
      <text x="40" y="42" font-family="sans-serif" font-size="8" fill="#16a34a">ส่งฟรี</text>
      
      <!-- Restaurant 2 -->
      <rect x="0" y="60" width="160" height="50" fill="#dcfce7" rx="8"/>
      <circle cx="20" cy="85" r="12" fill="#16a34a"/>
      <text x="15" y="90" font-family="sans-serif" font-size="12" fill="white" text-anchor="middle">S</text>
      <text x="40" y="80" font-family="sans-serif" font-size="10" font-weight="bold" fill="#1f2937">Subway</text>
      <text x="40" y="92" font-family="sans-serif" font-size="8" fill="#64748b">⭐ 4.3 • 10-15 นาที</text>
      <text x="40" y="102" font-family="sans-serif" font-size="8" fill="#dc2626">ค่าส่ง 25฿</text>
    </g>
  </g>
  
  <!-- Marketing Campaign Elements -->
  <g transform="translate(270, 50)">
    <!-- Facebook Ad -->
    <rect x="0" y="0" width="280" height="120" rx="8" fill="white" stroke="#e2e8f0" stroke-width="2"/>
    
    <!-- Ad Header -->
    <circle cx="25" cy="25" r="12" fill="#1877f2"/>
    <text x="45" y="22" font-family="sans-serif" font-size="11" font-weight="bold" fill="#1f2937">FoodFast Thailand</text>
    <text x="45" y="34" font-family="sans-serif" font-size="9" fill="#64748b">Sponsored</text>
    
    <!-- Ad Content -->
    <text x="20" y="55" font-family="sans-serif" font-size="12" font-weight="bold" fill="#1f2937">🎉 Grand Opening!</text>
    <text x="20" y="70" font-family="sans-serif" font-size="10" fill="#64748b">ส่งฟรีทุกออเดอร์! ไม่มีขั้นต่ำ</text>
    <text x="20" y="85" font-family="sans-serif" font-size="10" fill="#64748b">เฉพาะ 3 วันแรก เท่านั้น!</text>
    
    <!-- CTA Button -->
    <rect x="20" y="95" width="100" height="20" rx="10" fill="#f59e0b"/>
    <text x="70" y="107" font-family="sans-serif" font-size="9" font-weight="bold" fill="white" text-anchor="middle">Order Now</text>
  </g>
  
  <!-- Google Ads -->
  <g transform="translate(270, 190)">
    <rect x="0" y="0" width="280" height="60" rx="8" fill="white" stroke="#e2e8f0" stroke-width="2"/>
    
    <text x="10" y="20" font-family="sans-serif" font-size="11" font-weight="bold" fill="#1a73e8">FoodFast - ส่งอาหารเร็วที่สุดในกรุงเทพ</text>
    <text x="10" y="35" font-family="sans-serif" font-size="9" fill="#5f6368">foodfast.co.th</text>
    <text x="10" y="50" font-family="sans-serif" font-size="9" fill="#5f6368">สั่งอาหารออนไลน์ ส่งฟรี ใน 30 นาที ครอบคลุมทั่วกรุงเทพ</text>
    
    <rect x="240" y="10" width="30" height="15" rx="3" fill="#34a853"/>
    <text x="255" y="20" font-family="sans-serif" font-size="8" font-weight="bold" fill="white" text-anchor="middle">Ad</text>
  </g>
  
  <!-- Analytics Dashboard -->
  <g transform="translate(270, 270)">
    <rect x="0" y="0" width="280" height="80" rx="8" fill="white" stroke="#e2e8f0" stroke-width="2"/>
    
    <text x="20" y="20" font-family="sans-serif" font-size="12" font-weight="bold" fill="#1f2937">Campaign Performance</text>
    
    <!-- Metrics -->
    <text x="20" y="40" font-family="sans-serif" font-size="10" font-weight="bold" fill="#10b981">50,000+ Downloads</text>
    <text x="20" y="55" font-family="sans-serif" font-size="10" font-weight="bold" fill="#2563eb">15,000+ Daily Orders</text>
    <text x="20" y="70" font-family="sans-serif" font-size="10" font-weight="bold" fill="#f59e0b">4.8★ App Rating</text>
    
    <!-- Graph -->
    <g transform="translate(160, 30)">
      <path d="M0 40 L20 35 L40 25 L60 20 L80 15 L100 10" stroke="#10b981" stroke-width="2" fill="none"/>
      <circle cx="100" cy="10" r="3" fill="#10b981"/>
      <text x="105" y="15" font-family="sans-serif" font-size="8" fill="#10b981">Growth</text>
    </g>
  </g>
  
  <!-- Success Metrics -->
  <g transform="translate(80, 370)">
    <rect x="0" y="0" width="440" height="25" rx="4" fill="#10b981" opacity="0.1"/>
    <text x="20" y="15" font-family="sans-serif" font-size="11" font-weight="bold" fill="#10b981">Campaign Results: 50K+ app downloads, 300% increase in orders, #1 Food Delivery App</text>
  </g>
  
  <!-- ECHO Digital watermark -->
  <g transform="translate(500, 380)">
    <circle cx="15" cy="10" r="3" fill="#2563eb" opacity="0.5"/>
    <circle cx="15" cy="10" r="6" fill="none" stroke="#2563eb" stroke-width="1" opacity="0.3"/>
    <text x="25" y="8" font-family="sans-serif" font-size="8" fill="#64748b">ECHO DIGITAL</text>
    <text x="25" y="16" font-family="sans-serif" font-size="7" fill="#64748b">Digital Campaign</text>
  </g>
</svg>
