<svg width="600" height="400" viewBox="0 0 600 400" fill="none" xmlns="http://www.w3.org/2000/svg">
  <!-- Background -->
  <rect width="600" height="400" fill="#f8fafc"/>
  
  <!-- Browser Frame -->
  <rect x="50" y="50" width="500" height="300" rx="8" fill="white" stroke="#e2e8f0" stroke-width="2"/>
  
  <!-- Browser Header -->
  <rect x="50" y="50" width="500" height="40" rx="8" fill="#f1f5f9"/>
  <circle cx="75" cy="70" r="6" fill="#ef4444"/>
  <circle cx="95" cy="70" r="6" fill="#f59e0b"/>
  <circle cx="115" cy="70" r="6" fill="#10b981"/>
  
  <!-- URL Bar -->
  <rect x="150" y="60" width="300" height="20" rx="10" fill="white" stroke="#d1d5db"/>
  <text x="160" y="73" font-family="monospace" font-size="12" fill="#64748b">fashionstore.com</text>
  
  <!-- Fashion Landing Page Content -->
  <!-- Header -->
  <rect x="70" y="110" width="460" height="60" fill="#1f2937"/>
  <text x="300" y="135" font-family="sans-serif" font-size="16" font-weight="bold" fill="white" text-anchor="middle">FASHION STORE</text>
  <text x="300" y="155" font-family="sans-serif" font-size="12" fill="#d1d5db" text-anchor="middle">Premium Collection 2024</text>
  
  <!-- Hero Section -->
  <rect x="70" y="170" width="220" height="120" fill="#fef3c7"/>
  <rect x="90" y="190" width="80" height="80" fill="#f59e0b" opacity="0.8"/>
  <text x="130" y="235" font-family="sans-serif" font-size="10" font-weight="bold" fill="white" text-anchor="middle">SALE</text>
  <text x="130" y="245" font-family="sans-serif" font-size="8" fill="white" text-anchor="middle">50% OFF</text>
  
  <text x="200" y="200" font-family="sans-serif" font-size="14" font-weight="bold" fill="#1f2937">Summer Collection</text>
  <text x="200" y="220" font-family="sans-serif" font-size="10" fill="#64748b">Premium quality</text>
  <text x="200" y="235" font-family="sans-serif" font-size="10" fill="#64748b">Free shipping</text>
  
  <!-- CTA Button -->
  <rect x="200" y="250" width="80" height="25" rx="12" fill="#2563eb"/>
  <text x="240" y="265" font-family="sans-serif" font-size="10" font-weight="bold" fill="white" text-anchor="middle">SHOP NOW</text>
  
  <!-- Product Grid -->
  <g transform="translate(310, 170)">
    <rect x="0" y="0" width="60" height="60" fill="#e5e7eb"/>
    <rect x="70" y="0" width="60" height="60" fill="#e5e7eb"/>
    <rect x="140" y="0" width="60" height="60" fill="#e5e7eb"/>
    
    <rect x="0" y="70" width="60" height="60" fill="#e5e7eb"/>
    <rect x="70" y="70" width="60" height="60" fill="#e5e7eb"/>
    <rect x="140" y="70" width="60" height="60" fill="#e5e7eb"/>
    
    <!-- Product icons -->
    <circle cx="30" cy="30" r="15" fill="#f59e0b" opacity="0.7"/>
    <circle cx="100" cy="30" r="15" fill="#ef4444" opacity="0.7"/>
    <circle cx="170" cy="30" r="15" fill="#8b5cf6" opacity="0.7"/>
    
    <circle cx="30" cy="100" r="15" fill="#10b981" opacity="0.7"/>
    <circle cx="100" cy="100" r="15" fill="#06b6d4" opacity="0.7"/>
    <circle cx="170" cy="100" r="15" fill="#f97316" opacity="0.7"/>
  </g>
  
  <!-- Footer -->
  <rect x="70" y="310" width="460" height="30" fill="#374151"/>
  <text x="300" y="328" font-family="sans-serif" font-size="10" fill="white" text-anchor="middle">© 2024 Fashion Store - Designed by ECHO Digital</text>
  
  <!-- Success Metrics -->
  <g transform="translate(450, 360)">
    <rect x="0" y="0" width="120" height="30" rx="4" fill="#10b981" opacity="0.1"/>
    <text x="10" y="15" font-family="sans-serif" font-size="10" font-weight="bold" fill="#10b981">+350% Sales</text>
    <text x="10" y="25" font-family="sans-serif" font-size="8" fill="#059669">After redesign</text>
  </g>
</svg>
